<svg width="1024" height="1024" viewBox="0 0 1024 1024" fill="none" xmlns="http://www.w3.org/2000/svg">
<path d="M675.278 793.113V767.236L670.518 770.027C626.781 795.679 592.62 808.174 549.276 814.416C509.414 820.143 475.534 818.081 432.346 807.3C392.036 797.237 350.215 776.168 315.752 748.566C301.572 737.214 279.385 714.845 267.21 699.649C249.301 677.303 230.384 643.638 219.968 615.599C214.457 600.784 206.595 569.607 204.12 552.842C201.275 533.476 201.297 489.883 204.165 469.912C209.417 433.39 222.04 394.951 238.762 364.57C285.209 280.195 367.474 222.603 462.127 208.203C481.862 205.199 518.688 204.045 536.485 205.883C575.887 209.94 608.614 219.006 640.647 234.718C686.758 257.322 721.77 286 751.327 325.346C801.403 392.003 822.728 474.395 810.766 554.982C808.213 572.184 801.436 600.066 796.856 612.237C789.676 631.288 776.852 658.745 775.116 658.745C774.713 658.745 763.042 647.392 749.188 633.518L723.998 608.292L723.438 637.721L722.878 667.15L617.305 667.441L511.721 667.721L512.024 632.14L512.315 596.548L599.049 595.987L685.783 595.427L690.543 581.419C698.115 559.129 699.369 550.376 699.313 519.782C699.28 496.965 698.955 491.945 696.827 482.24C693.019 464.791 688.158 451.096 679.713 434.051C667.37 409.116 651.22 388.63 629.962 370.924C603.955 349.261 572.516 334.816 539.195 329.224C519.125 325.85 489.187 326.534 471.434 330.759C442.516 337.651 416.43 349.945 395.587 366.519C351.503 401.574 328.061 443.184 321.262 498.489C319.078 516.297 321.229 543.081 326.549 564.048C328.531 571.893 337.021 593.813 341.512 602.711C361.863 642.966 404.457 679.589 449 695.099C469.71 702.316 487.876 705.801 504.755 705.813H511.755V726.545V747.277H617.037C674.942 747.277 722.386 747.401 722.475 747.557C722.565 747.714 722.946 760.692 723.315 776.415L723.998 804.992L772.618 756.523C799.353 729.862 821.406 708.054 821.619 708.054C821.832 708.054 822 733.022 822 763.527V819H748.639H675.278V793.113Z" fill="#0052FF"/>
</svg>
