<svg width="1200" height="630" viewBox="0 0 1200 630" fill="none" xmlns="http://www.w3.org/2000/svg">
<path d="M382.656 371.814V366.63L381.704 367.189C372.956 372.328 366.124 374.831 357.455 376.082C349.483 377.229 342.707 376.816 334.069 374.656C326.007 372.64 317.643 368.42 310.75 362.89C307.914 360.616 303.477 356.135 301.042 353.091C297.46 348.614 293.677 341.87 291.594 336.254C290.491 333.286 288.919 327.04 288.424 323.682C287.855 319.802 287.859 311.069 288.433 307.069C289.483 299.752 292.008 292.052 295.352 285.966C304.642 269.063 321.095 257.526 340.025 254.642C343.972 254.04 351.338 253.809 354.897 254.177C362.777 254.99 369.323 256.806 375.729 259.953C384.952 264.481 391.954 270.226 397.865 278.108C407.881 291.462 412.146 307.967 409.753 324.11C409.243 327.556 407.887 333.142 406.971 335.58C405.535 339.397 402.97 344.897 402.623 344.897C402.543 344.897 400.208 342.623 397.438 339.843L392.4 334.79L392.288 340.685L392.176 346.58L371.061 346.639L349.944 346.695L350.005 339.567L350.063 332.437L367.41 332.325L384.757 332.213L385.709 329.406C387.223 324.941 387.474 323.188 387.463 317.059C387.456 312.488 387.391 311.482 386.965 309.538C386.204 306.043 385.232 303.299 383.543 299.885C381.074 294.89 377.844 290.786 373.592 287.239C368.391 282.899 362.103 280.005 355.439 278.885C351.425 278.209 345.437 278.346 341.887 279.193C336.103 280.573 330.886 283.036 326.717 286.357C317.901 293.379 313.212 301.714 311.852 312.793C311.416 316.361 311.846 321.726 312.91 325.927C313.306 327.498 315.004 331.889 315.902 333.672C319.973 341.736 328.491 349.072 337.4 352.179C341.542 353.625 345.175 354.323 348.551 354.326H349.951V358.479V362.632H371.007C382.588 362.632 392.077 362.657 392.095 362.688C392.113 362.72 392.189 365.319 392.263 368.469L392.4 374.194L402.124 364.484C407.471 359.143 411.881 354.775 411.924 354.775C411.966 354.775 412 359.776 412 365.887V377H397.328H382.656V371.814Z" fill="#0052FF"/>
<path d="M584.484 356.24C574.895 356.24 566.628 354.504 559.684 351.032C552.823 347.477 547.573 342.517 543.936 336.152C540.299 329.704 538.48 322.14 538.48 313.46C538.48 304.78 540.299 297.257 543.936 290.892C547.573 284.444 552.823 279.484 559.684 276.012C566.628 272.457 574.895 270.68 584.484 270.68C594.404 270.68 602.795 272.457 609.656 276.012C616.6 279.484 621.891 284.444 625.528 290.892C629.165 297.257 630.984 304.78 630.984 313.46C630.984 322.14 629.165 329.704 625.528 336.152C621.891 342.517 616.6 347.477 609.656 351.032C602.795 354.504 594.404 356.24 584.484 356.24ZM623.048 372.484H592.42L563.776 337.516H590.684L623.048 372.484ZM584.484 333.92C590.105 333.92 594.487 333.383 597.628 332.308C600.769 331.151 602.96 329.084 604.2 326.108C605.523 323.132 606.184 318.916 606.184 313.46C606.184 307.921 605.523 303.705 604.2 300.812C602.96 297.836 600.769 295.811 597.628 294.736C594.487 293.579 590.105 293 584.484 293C578.863 293 574.523 293.579 571.464 294.736C568.405 295.811 566.256 297.836 565.016 300.812C563.859 303.705 563.28 307.921 563.28 313.46C563.28 318.916 563.859 323.132 565.016 326.108C566.256 329.084 568.405 331.151 571.464 332.308C574.523 333.383 578.863 333.92 584.484 333.92ZM648.112 355H624.8V271.92H648.112V355ZM697.216 326.108H631.124V305.276H697.216V326.108ZM699.076 292.876H631.124V271.92H699.076V292.876Z" fill="#0052FF"/>
<path d="M748.644 334.044H710.452V313.088H746.04C750.173 313.088 753.108 312.468 754.844 311.228C756.662 309.988 757.572 307.219 757.572 302.92C757.572 298.704 756.662 295.976 754.844 294.736C753.108 293.496 750.173 292.876 746.04 292.876H710.452V271.92H748.644C755.257 271.92 760.961 273.16 765.756 275.64C770.55 278.037 774.229 281.551 776.792 286.18C779.437 290.727 780.76 296.307 780.76 302.92C780.76 309.451 779.437 315.072 776.792 319.784C774.229 324.413 770.55 327.968 765.756 330.448C760.961 332.845 755.257 334.044 748.644 334.044ZM725.952 355H702.64V271.92H725.952V355ZM840.146 355H818.322V341.112H817.082V318.916C817.082 315.775 816.255 313.791 814.602 312.964C813.031 312.055 810.179 311.6 806.046 311.6C802.243 311.6 799.598 312.055 798.11 312.964C796.705 313.873 796.002 315.651 796.002 318.296V318.792H772.69V318.544C772.69 313.005 774.137 308.211 777.03 304.16C779.923 300.027 784.015 296.844 789.306 294.612C794.597 292.38 800.755 291.264 807.782 291.264C815.057 291.264 821.091 292.421 825.886 294.736C830.681 296.968 834.235 300.192 836.55 304.408C838.947 308.541 840.146 313.543 840.146 319.412V355ZM793.522 356.24C786.495 356.24 781.039 354.711 777.154 351.652C773.351 348.593 771.45 344.419 771.45 339.128C771.45 336.152 772.153 333.507 773.558 331.192C774.963 328.877 777.154 327.017 780.13 325.612C783.106 324.124 786.95 323.132 791.662 322.636L818.322 320.032V332.928L797.862 335.284C796.787 335.367 796.002 335.615 795.506 336.028C795.093 336.441 794.886 336.979 794.886 337.64C794.886 338.632 795.341 339.293 796.25 339.624C797.242 339.872 798.647 339.996 800.466 339.996C804.599 339.996 807.865 339.789 810.262 339.376C812.659 338.88 814.395 338.012 815.47 336.772C816.545 335.532 817.082 333.755 817.082 331.44L818.818 330.944V341.856H817.082C815.925 346.237 813.403 349.751 809.518 352.396C805.633 354.959 800.301 356.24 793.522 356.24ZM848.42 376.08H837.136V355H855.24C857.141 355 858.588 354.752 859.58 354.256C860.572 353.76 861.316 352.892 861.812 351.652L863.548 347.436L861.316 357.852L829.696 292.504H856.232L867.02 317.056L871.484 331.44H873.096L877.188 316.808L886.488 292.504H912.528L882.892 357.48C880.66 362.357 878.015 366.16 874.956 368.888C871.98 371.616 868.343 373.476 864.044 374.468C859.745 375.543 854.537 376.08 848.42 376.08Z" fill="white"/>
</svg>
