<svg width="512" height="512" viewBox="0 0 512 512" fill="none" xmlns="http://www.w3.org/2000/svg">
<path d="M337.686 396.556V383.618L335.305 385.013C313.424 397.839 296.334 404.087 274.649 407.208C254.706 410.072 237.756 409.041 216.15 403.65C195.983 398.618 175.061 388.084 157.819 374.283C150.725 368.607 139.625 357.423 133.534 349.824C124.574 338.651 115.11 321.819 109.899 307.799C107.143 300.392 103.209 284.803 101.971 276.421C100.547 266.738 100.559 244.941 101.993 234.956C104.621 216.695 110.936 197.475 119.302 182.285C142.539 140.097 183.695 111.302 231.049 104.101C240.922 102.6 259.346 102.023 268.25 102.942C287.962 104.97 304.335 109.503 320.361 117.359C343.43 128.661 360.946 143 375.733 162.673C400.785 196.002 411.454 237.197 405.47 277.491C404.192 286.092 400.802 300.033 398.51 306.118C394.919 315.644 388.503 329.372 387.634 329.372C387.433 329.372 381.594 323.696 374.663 316.759L362.061 304.146L361.78 318.86L361.5 333.575L308.683 333.721L255.861 333.861L256.012 316.07L256.158 298.274L299.55 297.994L342.942 297.713L345.323 290.709C349.111 279.564 349.739 275.188 349.711 259.891C349.694 248.483 349.532 245.972 348.467 241.12C346.562 232.395 344.13 225.548 339.905 217.025C333.73 204.558 325.65 194.315 315.015 185.462C302.004 174.631 286.276 167.408 269.606 164.612C259.564 162.925 244.587 163.267 235.705 165.38C221.238 168.826 208.187 174.972 197.76 183.26C175.705 200.787 163.977 221.592 160.576 249.245C159.483 258.148 160.559 271.54 163.221 282.024C164.212 285.946 168.46 296.907 170.707 301.356C180.888 321.483 202.197 339.795 224.482 347.55C234.843 351.158 243.931 352.901 252.375 352.906H255.877V363.272V373.639H308.549C337.518 373.639 361.254 373.7 361.299 373.779C361.343 373.857 361.534 380.346 361.719 388.207L362.061 402.496L386.385 378.261C399.76 364.931 410.793 354.027 410.899 354.027C411.006 354.027 411.09 366.511 411.09 381.763V409.5H374.388H337.686V396.556Z" fill="#0040FF"/>
</svg>
